<mxfile host="Electron" agent="Mozilla/5.0 (Windows NT 10.0; Win64; x64) AppleWebKit/537.36 (KHTML, like Gecko) draw.io/26.2.2 Chrome/134.0.6998.178 Electron/35.1.2 Safari/537.36" version="26.2.2">
  <diagram name="Page-1" id="Nov4y1p_37BjrdmHnd_-">
    <mxGraphModel dx="2040" dy="1270" grid="1" gridSize="10" guides="1" tooltips="1" connect="1" arrows="1" fold="1" page="1" pageScale="1" pageWidth="1920" pageHeight="1080" math="0" shadow="0">
      <root>
        <mxCell id="0" />
        <mxCell id="1" parent="0" />
        <mxCell id="3YEScGpgQlPYdo0poo50-9" value="" style="group;fontColor=#FFFF00;" vertex="1" connectable="0" parent="1">
          <mxGeometry x="30" y="20" width="110" height="110" as="geometry" />
        </mxCell>
        <mxCell id="3YEScGpgQlPYdo0poo50-7" value="" style="whiteSpace=wrap;html=1;aspect=fixed;" vertex="1" parent="3YEScGpgQlPYdo0poo50-9">
          <mxGeometry width="110" height="110" as="geometry" />
        </mxCell>
        <mxCell id="3YEScGpgQlPYdo0poo50-8" value="&lt;font style=&quot;color: rgb(255, 255, 0);&quot;&gt;SEL&lt;/font&gt;" style="html=1;shadow=0;dashed=0;align=center;verticalAlign=middle;shape=mxgraph.arrows2.tailedNotchedArrow;dy1=10;dx1=20;notch=20;arrowHead=20;dx2=25;dy2=30;fillColor=#3C3C3C;" vertex="1" parent="3YEScGpgQlPYdo0poo50-9">
          <mxGeometry x="5" y="25" width="100" height="60" as="geometry" />
        </mxCell>
        <mxCell id="3YEScGpgQlPYdo0poo50-12" value="" style="group" vertex="1" connectable="0" parent="1">
          <mxGeometry x="1340" y="540" width="110" height="110" as="geometry" />
        </mxCell>
        <mxCell id="3YEScGpgQlPYdo0poo50-1" value="" style="whiteSpace=wrap;html=1;aspect=fixed;" vertex="1" parent="3YEScGpgQlPYdo0poo50-12">
          <mxGeometry width="110" height="110" as="geometry" />
        </mxCell>
        <mxCell id="3YEScGpgQlPYdo0poo50-11" value="&lt;font style=&quot;color: rgb(255, 255, 0);&quot;&gt;SEQ&lt;/font&gt;" style="html=1;shadow=0;dashed=0;align=center;verticalAlign=middle;shape=mxgraph.arrows2.tailedArrow;dy1=10;dx1=20;notch=0;arrowHead=20;dx2=25;dy2=30;fillColor=#4B4B4B;" vertex="1" parent="3YEScGpgQlPYdo0poo50-12">
          <mxGeometry x="5" y="25" width="100" height="60" as="geometry" />
        </mxCell>
        <mxCell id="3YEScGpgQlPYdo0poo50-13" value="" style="group" vertex="1" connectable="0" parent="1">
          <mxGeometry x="870" y="290" width="110" height="110" as="geometry" />
        </mxCell>
        <mxCell id="3YEScGpgQlPYdo0poo50-14" value="" style="whiteSpace=wrap;html=1;aspect=fixed;" vertex="1" parent="3YEScGpgQlPYdo0poo50-13">
          <mxGeometry width="110" height="110" as="geometry" />
        </mxCell>
        <mxCell id="3YEScGpgQlPYdo0poo50-16" value="" style="html=1;shadow=0;dashed=0;align=center;verticalAlign=middle;shape=mxgraph.arrows2.calloutDouble90Arrow;dy1=10;dx1=20;dx2=70;dy2=70;arrowHead=10;fillColor=#4B4B4B;" vertex="1" parent="3YEScGpgQlPYdo0poo50-13">
          <mxGeometry x="5" y="5" width="100" height="100" as="geometry" />
        </mxCell>
        <mxCell id="3YEScGpgQlPYdo0poo50-17" value="Action&lt;div&gt;&lt;br&gt;&lt;/div&gt;" style="rounded=1;whiteSpace=wrap;html=1;fontSize=20;" vertex="1" parent="1">
          <mxGeometry x="30" y="260" width="230" height="60" as="geometry" />
        </mxCell>
        <mxCell id="3YEScGpgQlPYdo0poo50-18" value="" style="group" vertex="1" connectable="0" parent="1">
          <mxGeometry x="150" y="140" width="110" height="110" as="geometry" />
        </mxCell>
        <mxCell id="3YEScGpgQlPYdo0poo50-19" value="" style="whiteSpace=wrap;html=1;aspect=fixed;" vertex="1" parent="3YEScGpgQlPYdo0poo50-18">
          <mxGeometry width="110" height="110" as="geometry" />
        </mxCell>
        <mxCell id="3YEScGpgQlPYdo0poo50-21" value="" style="html=1;shadow=0;dashed=0;align=center;verticalAlign=middle;shape=mxgraph.arrows2.jumpInArrow;dy=15;dx=38;arrowHead=55;fillColor=#4B4B4B;" vertex="1" parent="3YEScGpgQlPYdo0poo50-18">
          <mxGeometry x="5" y="5" width="100" height="100" as="geometry" />
        </mxCell>
        <mxCell id="3YEScGpgQlPYdo0poo50-26" style="edgeStyle=orthogonalEdgeStyle;rounded=0;orthogonalLoop=1;jettySize=auto;html=1;exitX=0.5;exitY=1;exitDx=0;exitDy=0;" edge="1" parent="1" source="3YEScGpgQlPYdo0poo50-22" target="3YEScGpgQlPYdo0poo50-24">
          <mxGeometry relative="1" as="geometry" />
        </mxCell>
        <mxCell id="3YEScGpgQlPYdo0poo50-22" value="START" style="ellipse;whiteSpace=wrap;html=1;" vertex="1" parent="1">
          <mxGeometry x="1055" y="10" width="120" height="80" as="geometry" />
        </mxCell>
        <mxCell id="3YEScGpgQlPYdo0poo50-23" value="" style="group" vertex="1" connectable="0" parent="1">
          <mxGeometry x="1060" y="130" width="110" height="110" as="geometry" />
        </mxCell>
        <mxCell id="3YEScGpgQlPYdo0poo50-24" value="" style="whiteSpace=wrap;html=1;aspect=fixed;" vertex="1" parent="3YEScGpgQlPYdo0poo50-23">
          <mxGeometry width="110" height="110" as="geometry" />
        </mxCell>
        <mxCell id="3YEScGpgQlPYdo0poo50-25" value="&lt;font style=&quot;color: rgb(255, 255, 0);&quot;&gt;SEQ&lt;/font&gt;" style="html=1;shadow=0;dashed=0;align=center;verticalAlign=middle;shape=mxgraph.arrows2.tailedArrow;dy1=10;dx1=20;notch=0;arrowHead=20;dx2=25;dy2=30;fillColor=#4B4B4B;" vertex="1" parent="3YEScGpgQlPYdo0poo50-23">
          <mxGeometry x="5" y="25" width="100" height="60" as="geometry" />
        </mxCell>
        <mxCell id="3YEScGpgQlPYdo0poo50-27" style="edgeStyle=orthogonalEdgeStyle;rounded=0;orthogonalLoop=1;jettySize=auto;html=1;exitX=0.5;exitY=1;exitDx=0;exitDy=0;" edge="1" parent="1" source="3YEScGpgQlPYdo0poo50-24" target="3YEScGpgQlPYdo0poo50-14">
          <mxGeometry relative="1" as="geometry" />
        </mxCell>
        <mxCell id="3YEScGpgQlPYdo0poo50-29" value="Should Use Energy" style="text;html=1;align=center;verticalAlign=middle;whiteSpace=wrap;rounded=0;" vertex="1" parent="1">
          <mxGeometry x="870" y="400" width="110" height="30" as="geometry" />
        </mxCell>
        <mxCell id="3YEScGpgQlPYdo0poo50-30" value="" style="group" vertex="1" connectable="0" parent="1">
          <mxGeometry x="30" y="140" width="110" height="110" as="geometry" />
        </mxCell>
        <mxCell id="3YEScGpgQlPYdo0poo50-31" value="" style="whiteSpace=wrap;html=1;aspect=fixed;" vertex="1" parent="3YEScGpgQlPYdo0poo50-30">
          <mxGeometry width="110" height="110" as="geometry" />
        </mxCell>
        <mxCell id="3YEScGpgQlPYdo0poo50-32" value="" style="html=1;shadow=0;dashed=0;align=center;verticalAlign=middle;shape=mxgraph.arrows2.calloutDouble90Arrow;dy1=10;dx1=20;dx2=70;dy2=70;arrowHead=10;fillColor=#4B4B4B;" vertex="1" parent="3YEScGpgQlPYdo0poo50-30">
          <mxGeometry x="5" y="5" width="100" height="100" as="geometry" />
        </mxCell>
        <mxCell id="3YEScGpgQlPYdo0poo50-33" value="" style="group" vertex="1" connectable="0" parent="1">
          <mxGeometry x="1060" y="290" width="110" height="110" as="geometry" />
        </mxCell>
        <mxCell id="3YEScGpgQlPYdo0poo50-34" value="" style="whiteSpace=wrap;html=1;aspect=fixed;" vertex="1" parent="3YEScGpgQlPYdo0poo50-33">
          <mxGeometry width="110" height="110" as="geometry" />
        </mxCell>
        <mxCell id="3YEScGpgQlPYdo0poo50-35" value="" style="html=1;shadow=0;dashed=0;align=center;verticalAlign=middle;shape=mxgraph.arrows2.calloutDouble90Arrow;dy1=10;dx1=20;dx2=70;dy2=70;arrowHead=10;fillColor=#4B4B4B;" vertex="1" parent="3YEScGpgQlPYdo0poo50-33">
          <mxGeometry x="5" y="5" width="100" height="100" as="geometry" />
        </mxCell>
        <mxCell id="3YEScGpgQlPYdo0poo50-36" style="edgeStyle=orthogonalEdgeStyle;rounded=0;orthogonalLoop=1;jettySize=auto;html=1;exitX=0.5;exitY=1;exitDx=0;exitDy=0;entryX=0.5;entryY=0;entryDx=0;entryDy=0;" edge="1" parent="1" source="3YEScGpgQlPYdo0poo50-24" target="3YEScGpgQlPYdo0poo50-34">
          <mxGeometry relative="1" as="geometry" />
        </mxCell>
        <mxCell id="3YEScGpgQlPYdo0poo50-37" value="Has Enough Energy" style="text;html=1;align=center;verticalAlign=middle;whiteSpace=wrap;rounded=0;" vertex="1" parent="1">
          <mxGeometry x="1060" y="400" width="110" height="30" as="geometry" />
        </mxCell>
        <mxCell id="3YEScGpgQlPYdo0poo50-42" value="Handle Crafting" style="text;html=1;align=center;verticalAlign=middle;whiteSpace=wrap;rounded=0;" vertex="1" parent="1">
          <mxGeometry x="1230" y="230" width="110" height="30" as="geometry" />
        </mxCell>
        <mxCell id="3YEScGpgQlPYdo0poo50-43" value="" style="group;fontColor=#FFFF00;" vertex="1" connectable="0" parent="1">
          <mxGeometry x="1230" y="290" width="110" height="110" as="geometry" />
        </mxCell>
        <mxCell id="3YEScGpgQlPYdo0poo50-44" value="" style="whiteSpace=wrap;html=1;aspect=fixed;" vertex="1" parent="3YEScGpgQlPYdo0poo50-43">
          <mxGeometry width="110" height="110" as="geometry" />
        </mxCell>
        <mxCell id="3YEScGpgQlPYdo0poo50-45" value="&lt;font style=&quot;color: rgb(255, 255, 0);&quot;&gt;SEL&lt;/font&gt;" style="html=1;shadow=0;dashed=0;align=center;verticalAlign=middle;shape=mxgraph.arrows2.tailedNotchedArrow;dy1=10;dx1=20;notch=20;arrowHead=20;dx2=25;dy2=30;fillColor=#3C3C3C;" vertex="1" parent="3YEScGpgQlPYdo0poo50-43">
          <mxGeometry x="5" y="25" width="100" height="60" as="geometry" />
        </mxCell>
        <mxCell id="3YEScGpgQlPYdo0poo50-46" style="edgeStyle=orthogonalEdgeStyle;rounded=0;orthogonalLoop=1;jettySize=auto;html=1;exitX=0.5;exitY=1;exitDx=0;exitDy=0;" edge="1" parent="1" source="3YEScGpgQlPYdo0poo50-24" target="3YEScGpgQlPYdo0poo50-44">
          <mxGeometry relative="1" as="geometry" />
        </mxCell>
        <mxCell id="3YEScGpgQlPYdo0poo50-47" value="Finish Crafting" style="text;html=1;align=center;verticalAlign=middle;whiteSpace=wrap;rounded=0;" vertex="1" parent="1">
          <mxGeometry x="1390" y="510" width="110" height="30" as="geometry" />
        </mxCell>
        <mxCell id="3YEScGpgQlPYdo0poo50-48" value="" style="group" vertex="1" connectable="0" parent="1">
          <mxGeometry x="310" y="540" width="110" height="110" as="geometry" />
        </mxCell>
        <mxCell id="3YEScGpgQlPYdo0poo50-49" value="" style="whiteSpace=wrap;html=1;aspect=fixed;" vertex="1" parent="3YEScGpgQlPYdo0poo50-48">
          <mxGeometry width="110" height="110" as="geometry" />
        </mxCell>
        <mxCell id="3YEScGpgQlPYdo0poo50-50" value="&lt;font style=&quot;color: rgb(255, 255, 0);&quot;&gt;SEQ&lt;/font&gt;" style="html=1;shadow=0;dashed=0;align=center;verticalAlign=middle;shape=mxgraph.arrows2.tailedArrow;dy1=10;dx1=20;notch=0;arrowHead=20;dx2=25;dy2=30;fillColor=#4B4B4B;" vertex="1" parent="3YEScGpgQlPYdo0poo50-48">
          <mxGeometry x="5" y="25" width="100" height="60" as="geometry" />
        </mxCell>
        <mxCell id="3YEScGpgQlPYdo0poo50-51" value="Start New Crafting" style="text;html=1;align=center;verticalAlign=middle;whiteSpace=wrap;rounded=0;" vertex="1" parent="1">
          <mxGeometry x="220" y="510" width="110" height="30" as="geometry" />
        </mxCell>
        <mxCell id="3YEScGpgQlPYdo0poo50-52" value="" style="group" vertex="1" connectable="0" parent="1">
          <mxGeometry x="150" y="20" width="110" height="110" as="geometry" />
        </mxCell>
        <mxCell id="3YEScGpgQlPYdo0poo50-53" value="" style="whiteSpace=wrap;html=1;aspect=fixed;" vertex="1" parent="3YEScGpgQlPYdo0poo50-52">
          <mxGeometry width="110" height="110" as="geometry" />
        </mxCell>
        <mxCell id="3YEScGpgQlPYdo0poo50-54" value="&lt;font style=&quot;color: rgb(255, 255, 0);&quot;&gt;SEQ&lt;/font&gt;" style="html=1;shadow=0;dashed=0;align=center;verticalAlign=middle;shape=mxgraph.arrows2.tailedArrow;dy1=10;dx1=20;notch=0;arrowHead=20;dx2=25;dy2=30;fillColor=#4B4B4B;" vertex="1" parent="3YEScGpgQlPYdo0poo50-52">
          <mxGeometry x="5" y="25" width="100" height="60" as="geometry" />
        </mxCell>
        <mxCell id="3YEScGpgQlPYdo0poo50-55" value="" style="group" vertex="1" connectable="0" parent="1">
          <mxGeometry x="640" y="540" width="110" height="110" as="geometry" />
        </mxCell>
        <mxCell id="3YEScGpgQlPYdo0poo50-56" value="" style="whiteSpace=wrap;html=1;aspect=fixed;" vertex="1" parent="3YEScGpgQlPYdo0poo50-55">
          <mxGeometry width="110" height="110" as="geometry" />
        </mxCell>
        <mxCell id="3YEScGpgQlPYdo0poo50-57" value="&lt;font style=&quot;color: rgb(255, 255, 0);&quot;&gt;SEQ&lt;/font&gt;" style="html=1;shadow=0;dashed=0;align=center;verticalAlign=middle;shape=mxgraph.arrows2.tailedArrow;dy1=10;dx1=20;notch=0;arrowHead=20;dx2=25;dy2=30;fillColor=#4B4B4B;" vertex="1" parent="3YEScGpgQlPYdo0poo50-55">
          <mxGeometry x="5" y="25" width="100" height="60" as="geometry" />
        </mxCell>
        <mxCell id="3YEScGpgQlPYdo0poo50-58" value="Increase Process" style="text;html=1;align=center;verticalAlign=middle;whiteSpace=wrap;rounded=0;" vertex="1" parent="1">
          <mxGeometry x="570" y="510" width="110" height="30" as="geometry" />
        </mxCell>
        <mxCell id="3YEScGpgQlPYdo0poo50-59" style="edgeStyle=orthogonalEdgeStyle;rounded=0;orthogonalLoop=1;jettySize=auto;html=1;exitX=0.5;exitY=1;exitDx=0;exitDy=0;" edge="1" parent="1" source="3YEScGpgQlPYdo0poo50-44" target="3YEScGpgQlPYdo0poo50-49">
          <mxGeometry relative="1" as="geometry" />
        </mxCell>
        <mxCell id="3YEScGpgQlPYdo0poo50-60" style="edgeStyle=orthogonalEdgeStyle;rounded=0;orthogonalLoop=1;jettySize=auto;html=1;exitX=0.5;exitY=1;exitDx=0;exitDy=0;" edge="1" parent="1" source="3YEScGpgQlPYdo0poo50-44" target="3YEScGpgQlPYdo0poo50-56">
          <mxGeometry relative="1" as="geometry" />
        </mxCell>
        <mxCell id="3YEScGpgQlPYdo0poo50-61" style="edgeStyle=orthogonalEdgeStyle;rounded=0;orthogonalLoop=1;jettySize=auto;html=1;exitX=0.5;exitY=1;exitDx=0;exitDy=0;" edge="1" parent="1" source="3YEScGpgQlPYdo0poo50-44" target="3YEScGpgQlPYdo0poo50-1">
          <mxGeometry relative="1" as="geometry" />
        </mxCell>
        <mxCell id="3YEScGpgQlPYdo0poo50-62" value="" style="group" vertex="1" connectable="0" parent="1">
          <mxGeometry x="200" y="820" width="110" height="110" as="geometry" />
        </mxCell>
        <mxCell id="3YEScGpgQlPYdo0poo50-63" value="" style="whiteSpace=wrap;html=1;aspect=fixed;" vertex="1" parent="3YEScGpgQlPYdo0poo50-62">
          <mxGeometry width="110" height="110" as="geometry" />
        </mxCell>
        <mxCell id="3YEScGpgQlPYdo0poo50-64" value="" style="html=1;shadow=0;dashed=0;align=center;verticalAlign=middle;shape=mxgraph.arrows2.calloutDouble90Arrow;dy1=10;dx1=20;dx2=70;dy2=70;arrowHead=10;fillColor=#4B4B4B;" vertex="1" parent="3YEScGpgQlPYdo0poo50-62">
          <mxGeometry x="5" y="5" width="100" height="100" as="geometry" />
        </mxCell>
        <mxCell id="3YEScGpgQlPYdo0poo50-65" value="Process is 0" style="text;html=1;align=center;verticalAlign=middle;whiteSpace=wrap;rounded=0;" vertex="1" parent="1">
          <mxGeometry x="200" y="930" width="110" height="30" as="geometry" />
        </mxCell>
        <mxCell id="3YEScGpgQlPYdo0poo50-66" value="" style="group" vertex="1" connectable="0" parent="1">
          <mxGeometry x="320" y="820" width="110" height="110" as="geometry" />
        </mxCell>
        <mxCell id="3YEScGpgQlPYdo0poo50-67" value="" style="whiteSpace=wrap;html=1;aspect=fixed;" vertex="1" parent="3YEScGpgQlPYdo0poo50-66">
          <mxGeometry width="110" height="110" as="geometry" />
        </mxCell>
        <mxCell id="3YEScGpgQlPYdo0poo50-68" value="" style="html=1;shadow=0;dashed=0;align=center;verticalAlign=middle;shape=mxgraph.arrows2.calloutDouble90Arrow;dy1=10;dx1=20;dx2=70;dy2=70;arrowHead=10;fillColor=#4B4B4B;" vertex="1" parent="3YEScGpgQlPYdo0poo50-66">
          <mxGeometry x="5" y="5" width="100" height="100" as="geometry" />
        </mxCell>
        <mxCell id="3YEScGpgQlPYdo0poo50-69" value="Has Recipe" style="text;html=1;align=center;verticalAlign=middle;whiteSpace=wrap;rounded=0;" vertex="1" parent="1">
          <mxGeometry x="320" y="930" width="110" height="30" as="geometry" />
        </mxCell>
        <mxCell id="3YEScGpgQlPYdo0poo50-70" style="edgeStyle=orthogonalEdgeStyle;rounded=0;orthogonalLoop=1;jettySize=auto;html=1;exitX=0.5;exitY=1;exitDx=0;exitDy=0;entryX=0.55;entryY=0.05;entryDx=0;entryDy=0;entryPerimeter=0;" edge="1" parent="1" source="3YEScGpgQlPYdo0poo50-49" target="3YEScGpgQlPYdo0poo50-64">
          <mxGeometry relative="1" as="geometry" />
        </mxCell>
        <mxCell id="3YEScGpgQlPYdo0poo50-71" style="edgeStyle=orthogonalEdgeStyle;rounded=0;orthogonalLoop=1;jettySize=auto;html=1;exitX=0.5;exitY=1;exitDx=0;exitDy=0;entryX=0.5;entryY=0;entryDx=0;entryDy=0;" edge="1" parent="1" source="3YEScGpgQlPYdo0poo50-49" target="3YEScGpgQlPYdo0poo50-67">
          <mxGeometry relative="1" as="geometry" />
        </mxCell>
        <mxCell id="3YEScGpgQlPYdo0poo50-72" value="Action&lt;div&gt;Increase Process&lt;/div&gt;" style="rounded=1;whiteSpace=wrap;html=1;fontSize=20;" vertex="1" parent="1">
          <mxGeometry x="440" y="870" width="230" height="60" as="geometry" />
        </mxCell>
        <mxCell id="3YEScGpgQlPYdo0poo50-73" style="edgeStyle=orthogonalEdgeStyle;rounded=0;orthogonalLoop=1;jettySize=auto;html=1;exitX=0.5;exitY=1;exitDx=0;exitDy=0;" edge="1" parent="1" source="3YEScGpgQlPYdo0poo50-49" target="3YEScGpgQlPYdo0poo50-72">
          <mxGeometry relative="1" as="geometry" />
        </mxCell>
        <mxCell id="3YEScGpgQlPYdo0poo50-74" value="Action&lt;div&gt;Increase Process&lt;/div&gt;" style="rounded=1;whiteSpace=wrap;html=1;fontSize=20;" vertex="1" parent="1">
          <mxGeometry x="760" y="690" width="230" height="60" as="geometry" />
        </mxCell>
        <mxCell id="3YEScGpgQlPYdo0poo50-75" value="" style="group" vertex="1" connectable="0" parent="1">
          <mxGeometry x="580" y="690" width="110" height="110" as="geometry" />
        </mxCell>
        <mxCell id="3YEScGpgQlPYdo0poo50-76" value="" style="whiteSpace=wrap;html=1;aspect=fixed;" vertex="1" parent="3YEScGpgQlPYdo0poo50-75">
          <mxGeometry width="110" height="110" as="geometry" />
        </mxCell>
        <mxCell id="3YEScGpgQlPYdo0poo50-77" value="" style="html=1;shadow=0;dashed=0;align=center;verticalAlign=middle;shape=mxgraph.arrows2.calloutDouble90Arrow;dy1=10;dx1=20;dx2=70;dy2=70;arrowHead=10;fillColor=#4B4B4B;" vertex="1" parent="3YEScGpgQlPYdo0poo50-75">
          <mxGeometry x="5" y="5" width="100" height="100" as="geometry" />
        </mxCell>
        <mxCell id="3YEScGpgQlPYdo0poo50-78" style="edgeStyle=orthogonalEdgeStyle;rounded=0;orthogonalLoop=1;jettySize=auto;html=1;exitX=0.5;exitY=1;exitDx=0;exitDy=0;entryX=0.5;entryY=0;entryDx=0;entryDy=0;" edge="1" parent="1" source="3YEScGpgQlPYdo0poo50-56" target="3YEScGpgQlPYdo0poo50-76">
          <mxGeometry relative="1" as="geometry" />
        </mxCell>
        <mxCell id="3YEScGpgQlPYdo0poo50-79" style="edgeStyle=orthogonalEdgeStyle;rounded=0;orthogonalLoop=1;jettySize=auto;html=1;exitX=0.5;exitY=1;exitDx=0;exitDy=0;" edge="1" parent="1" source="3YEScGpgQlPYdo0poo50-56" target="3YEScGpgQlPYdo0poo50-74">
          <mxGeometry relative="1" as="geometry" />
        </mxCell>
        <mxCell id="3YEScGpgQlPYdo0poo50-80" value="Process &amp;gt;= Max" style="text;html=1;align=center;verticalAlign=middle;whiteSpace=wrap;rounded=0;" vertex="1" parent="1">
          <mxGeometry x="1320" y="790" width="110" height="30" as="geometry" />
        </mxCell>
        <mxCell id="3YEScGpgQlPYdo0poo50-81" value="" style="group" vertex="1" connectable="0" parent="1">
          <mxGeometry x="1320" y="680" width="110" height="110" as="geometry" />
        </mxCell>
        <mxCell id="3YEScGpgQlPYdo0poo50-82" value="" style="whiteSpace=wrap;html=1;aspect=fixed;" vertex="1" parent="3YEScGpgQlPYdo0poo50-81">
          <mxGeometry width="110" height="110" as="geometry" />
        </mxCell>
        <mxCell id="3YEScGpgQlPYdo0poo50-83" value="" style="html=1;shadow=0;dashed=0;align=center;verticalAlign=middle;shape=mxgraph.arrows2.calloutDouble90Arrow;dy1=10;dx1=20;dx2=70;dy2=70;arrowHead=10;fillColor=#4B4B4B;" vertex="1" parent="3YEScGpgQlPYdo0poo50-81">
          <mxGeometry x="5" y="5" width="100" height="100" as="geometry" />
        </mxCell>
        <mxCell id="3YEScGpgQlPYdo0poo50-84" value="" style="group" vertex="1" connectable="0" parent="1">
          <mxGeometry x="1460" y="680" width="110" height="110" as="geometry" />
        </mxCell>
        <mxCell id="3YEScGpgQlPYdo0poo50-85" value="" style="whiteSpace=wrap;html=1;aspect=fixed;" vertex="1" parent="3YEScGpgQlPYdo0poo50-84">
          <mxGeometry width="110" height="110" as="geometry" />
        </mxCell>
        <mxCell id="3YEScGpgQlPYdo0poo50-86" value="&lt;font style=&quot;color: rgb(255, 255, 0);&quot;&gt;SEQ&lt;/font&gt;" style="html=1;shadow=0;dashed=0;align=center;verticalAlign=middle;shape=mxgraph.arrows2.tailedArrow;dy1=10;dx1=20;notch=0;arrowHead=20;dx2=25;dy2=30;fillColor=#4B4B4B;" vertex="1" parent="3YEScGpgQlPYdo0poo50-84">
          <mxGeometry x="5" y="25" width="100" height="60" as="geometry" />
        </mxCell>
        <mxCell id="3YEScGpgQlPYdo0poo50-87" style="edgeStyle=orthogonalEdgeStyle;rounded=0;orthogonalLoop=1;jettySize=auto;html=1;exitX=0.5;exitY=1;exitDx=0;exitDy=0;" edge="1" parent="1" source="3YEScGpgQlPYdo0poo50-1" target="3YEScGpgQlPYdo0poo50-82">
          <mxGeometry relative="1" as="geometry" />
        </mxCell>
        <mxCell id="3YEScGpgQlPYdo0poo50-88" style="edgeStyle=orthogonalEdgeStyle;rounded=0;orthogonalLoop=1;jettySize=auto;html=1;exitX=0.5;exitY=1;exitDx=0;exitDy=0;" edge="1" parent="1" source="3YEScGpgQlPYdo0poo50-1" target="3YEScGpgQlPYdo0poo50-85">
          <mxGeometry relative="1" as="geometry" />
        </mxCell>
        <mxCell id="3YEScGpgQlPYdo0poo50-89" value="Finalize Crafting" style="text;html=1;align=center;verticalAlign=middle;whiteSpace=wrap;rounded=0;" vertex="1" parent="1">
          <mxGeometry x="1500" y="630" width="110" height="30" as="geometry" />
        </mxCell>
        <mxCell id="3YEScGpgQlPYdo0poo50-90" value="Action&lt;div&gt;Remove Input Stack&lt;/div&gt;" style="rounded=1;whiteSpace=wrap;html=1;fontSize=20;" vertex="1" parent="1">
          <mxGeometry x="730" y="960" width="230" height="60" as="geometry" />
        </mxCell>
        <mxCell id="3YEScGpgQlPYdo0poo50-91" style="edgeStyle=orthogonalEdgeStyle;rounded=0;orthogonalLoop=1;jettySize=auto;html=1;exitX=0.5;exitY=1;exitDx=0;exitDy=0;" edge="1" parent="1" source="3YEScGpgQlPYdo0poo50-85" target="3YEScGpgQlPYdo0poo50-90">
          <mxGeometry relative="1" as="geometry" />
        </mxCell>
        <mxCell id="3YEScGpgQlPYdo0poo50-92" value="Action&lt;div&gt;Add Output Stack&lt;/div&gt;" style="rounded=1;whiteSpace=wrap;html=1;fontSize=20;" vertex="1" parent="1">
          <mxGeometry x="980" y="960" width="230" height="60" as="geometry" />
        </mxCell>
        <mxCell id="3YEScGpgQlPYdo0poo50-93" value="Action&lt;div&gt;Reduce Energy&lt;/div&gt;" style="rounded=1;whiteSpace=wrap;html=1;fontSize=20;" vertex="1" parent="1">
          <mxGeometry x="1230" y="960" width="230" height="60" as="geometry" />
        </mxCell>
        <mxCell id="3YEScGpgQlPYdo0poo50-94" value="Action&lt;div&gt;Reset Process&lt;/div&gt;" style="rounded=1;whiteSpace=wrap;html=1;fontSize=20;" vertex="1" parent="1">
          <mxGeometry x="1480" y="960" width="230" height="60" as="geometry" />
        </mxCell>
        <mxCell id="3YEScGpgQlPYdo0poo50-95" value="Process &amp;lt; Max" style="text;html=1;align=center;verticalAlign=middle;whiteSpace=wrap;rounded=0;" vertex="1" parent="1">
          <mxGeometry x="580" y="800" width="110" height="30" as="geometry" />
        </mxCell>
        <mxCell id="3YEScGpgQlPYdo0poo50-96" value="Action&lt;div&gt;Reduce Energy&lt;/div&gt;" style="rounded=1;whiteSpace=wrap;html=1;fontSize=20;" vertex="1" parent="1">
          <mxGeometry x="1000" y="690" width="230" height="60" as="geometry" />
        </mxCell>
        <mxCell id="3YEScGpgQlPYdo0poo50-97" style="edgeStyle=orthogonalEdgeStyle;rounded=0;orthogonalLoop=1;jettySize=auto;html=1;exitX=0.5;exitY=1;exitDx=0;exitDy=0;" edge="1" parent="1" source="3YEScGpgQlPYdo0poo50-56" target="3YEScGpgQlPYdo0poo50-96">
          <mxGeometry relative="1" as="geometry" />
        </mxCell>
        <mxCell id="3YEScGpgQlPYdo0poo50-98" style="edgeStyle=orthogonalEdgeStyle;rounded=0;orthogonalLoop=1;jettySize=auto;html=1;exitX=0.5;exitY=1;exitDx=0;exitDy=0;" edge="1" parent="1" source="3YEScGpgQlPYdo0poo50-85" target="3YEScGpgQlPYdo0poo50-92">
          <mxGeometry relative="1" as="geometry" />
        </mxCell>
        <mxCell id="3YEScGpgQlPYdo0poo50-99" style="edgeStyle=orthogonalEdgeStyle;rounded=0;orthogonalLoop=1;jettySize=auto;html=1;exitX=0.5;exitY=1;exitDx=0;exitDy=0;" edge="1" parent="1" source="3YEScGpgQlPYdo0poo50-85" target="3YEScGpgQlPYdo0poo50-93">
          <mxGeometry relative="1" as="geometry" />
        </mxCell>
        <mxCell id="3YEScGpgQlPYdo0poo50-100" style="edgeStyle=orthogonalEdgeStyle;rounded=0;orthogonalLoop=1;jettySize=auto;html=1;exitX=0.5;exitY=1;exitDx=0;exitDy=0;" edge="1" parent="1" source="3YEScGpgQlPYdo0poo50-85" target="3YEScGpgQlPYdo0poo50-94">
          <mxGeometry relative="1" as="geometry" />
        </mxCell>
      </root>
    </mxGraphModel>
  </diagram>
</mxfile>
